<?xml version="1.0" encoding="utf-8" ?><svg xmlns="http://www.w3.org/2000/svg" xmlns:xlink="http://www.w3.org/1999/xlink" width="768" height="1536" viewBox="0 0 768 1536"><path fill="white" d="M0 0L768 0L768 1536L0 1536L0 0Z"/><path fill="#122135" d="M157.477 435.07C150.037 428.794 143.879 419.411 145.331 409.019C145.712 406.294 150.523 404.793 150.519 404.305C150.377 389.686 149.801 376.731 158.729 364.237C164.672 355.923 173.68 350.316 183.763 348.654C209.331 344.489 231.432 360.502 233.298 387.06C233.724 393.127 232.859 399.055 233.779 405.15C244.966 405.922 237.741 424.714 233.459 428.461C222.812 437.777 222.921 452.268 223.946 465.087C228.74 470.09 257.56 489.997 263.962 491.148C286.374 495.178 300.716 500.376 312.906 521.891C320.768 535.767 323.186 550.847 318.292 567.529C331.364 591.179 324.01 601.637 330.897 625.1C331.326 626.562 337.135 634.746 338.591 636.849C349.348 650.125 354.207 663.78 357.003 680.393C360.433 697.243 359.245 714.921 361.533 732.039C365.883 764.58 377.197 799.873 359.449 830.667C355.555 837.424 350.375 838.785 344.731 842.834C339.77 842.73 337.682 836.539 340.344 832.445C348.336 820.155 357.824 807.042 346.576 793.054L344.743 792.145C338.551 795.784 340.422 811.729 331.625 813.692L329.893 812.925C328.785 808.492 333.66 776.876 335.603 771.281C337.189 766.712 344.796 764.172 341.923 754.726C334.362 729.875 316.9 709.042 305.95 685.666C298.207 669.135 301.788 654.781 297.724 639.362C295.442 630.703 283.485 618.815 278.831 607.78C263.981 627.956 252.268 640.217 256.347 667.289C257.901 678.888 262.473 690.518 261.748 702.296C261.674 703.49 259.246 707.305 259.246 707.306C266.339 728.437 271.725 750.427 275.59 772.387C279.654 795.486 281.306 819.762 278.223 843.023C273.989 875.74 260.58 905.868 257.552 938.834C255.872 957.112 262.082 969.428 266.726 986.434C268.687 993.616 269.699 1006 269.424 1013.42C268.184 1046.9 249.86 1078.2 242.212 1110.63C240.384 1118.38 242.841 1124.12 243.382 1131.75C243.495 1133.34 242.683 1138.65 242.417 1140.42C250.73 1158.22 266.765 1163.39 275.662 1179.59C271.291 1184.97 261.046 1189.32 254.29 1188.72C253.261 1187.81 252.759 1187.25 251.477 1186.69C248.669 1188.97 249.32 1189.64 245.691 1190.39C233.592 1192.9 229.046 1186.44 224.737 1176.47C220.784 1174.88 212.823 1171.03 213.265 1167.29C213.726 1163.38 211.491 1127.65 211.748 1127.02C227.105 1089.49 204.627 1058.17 205.146 1020.69C205.43 999.195 215.262 976.306 212.772 954.261C211.564 941.141 202.636 928.533 201.345 917.504C199.092 898.262 198.611 876.982 197.316 857.416L194.379 814.953C193.871 808.037 192.746 797.384 192.771 790.669L191.053 787.218C188.577 822.416 187.066 861.614 183.778 896.237C183.724 900.493 183.566 902.902 183.1 907.116C182.33 927.681 172.437 936.33 170.471 953.744C167.952 976.043 178.417 1000.08 177.657 1023.72C176.798 1050.47 167.056 1072.35 166.715 1099.1C166.573 1110.2 170.191 1117.14 171.872 1127.5C171.923 1133.76 170.964 1139.9 170.556 1146.24C170.098 1153.35 172.188 1162.89 169.531 1169.27C167.773 1173.48 162.871 1175.15 158.97 1176.65C155.736 1183.34 152.768 1190.15 144.327 1190.88C137.655 1191.46 137.388 1189.29 132.734 1186.59C132.353 1186.95 130.603 1188.52 130.266 1188.49C79.8834 1183.67 136.293 1159.82 140.957 1140.84C141.808 1137.38 139.977 1132.01 140.342 1128.61C140.913 1123.29 142.53 1120.11 142.524 1114.88C140.319 1099.89 133.235 1083.63 128.524 1069.38C123.472 1054.1 117.585 1040.17 115.23 1024.46C113.309 1011.32 114.083 997.932 117.505 985.104C121.272 971.461 127.009 958.82 126.44 944.321C125.466 919.546 116.529 894.719 110.569 870.668C100.225 828.927 102.891 790.008 111.668 748.405C114.845 733.344 117.523 721.004 123.694 706.604C118.651 697.32 126.07 679.114 127.679 668.311C131.619 641.872 120.383 627.663 105.434 607.498C101.124 616.487 88.8326 632.686 87.4108 636.709C81.7975 652.592 86.0665 665.187 78.1049 684.393C68.7081 707.061 43.8291 738.281 41.9122 761.38C43.0865 763.088 49.3564 772.083 49.4881 773.43C50.225 780.964 58.0324 809.835 52.5817 814.336C47.0599 812.662 43.0549 797.521 40.8263 792.065C38.2206 793.757 36.4017 795.363 34.0362 797.377C29.4291 826.312 46.1522 828.528 45.3593 837.956C43.886 839.9 41.6077 843.173 38.7906 842.474C31.7562 840.727 28.2407 837.428 24.3949 831.19C4.34516 798.67 19.7989 757.158 24.108 722.395C25.8952 708.86 26.2892 689.084 28.8451 676.635C29.7614 668.365 31.467 663.034 34.5688 655.354C38.9019 645.856 53.3444 628.786 54.5449 622.896C59.1766 600.174 54.272 589.508 65.9314 567.152C56.4367 538.659 73.5832 505.579 101.355 495.41C107.003 493.342 115.908 493.152 120.831 490.755C134.607 484.049 147.709 474.606 160.336 465.942C161.223 449.097 161.082 451.277 157.477 435.07Z"/><path fill="#EB374C" d="M136.954 740.408L138.175 736.116C144.846 762.051 152.329 791.334 160.29 816.873C168.926 844.575 178.08 865.389 182.531 895.127L183.778 896.237C183.724 900.493 183.566 902.902 183.1 907.116C182.396 907.564 181.696 908.019 181 908.48C178.805 913.421 167.724 923.075 162.852 918.342C158.537 914.151 155.55 897.947 154.705 891.717C149.736 855.109 148.471 818.052 142.346 781.499C140.065 767.736 139.272 754.019 136.954 740.408Z"/><path fill="#3F0F20" d="M182.531 895.127L183.778 896.237C183.724 900.493 183.566 902.902 183.1 907.116C182.396 907.564 181.696 908.019 181 908.48C182.747 901.751 182.361 901.947 182.531 895.127Z"/><path fill="#EB374C" d="M349.026 754.471C344.57 732.33 338.215 712.57 332.194 691.091C330.178 683.896 325.247 644.3 326.684 638.396C329.632 635.291 336.014 638.501 338.865 640.728C339.478 639.383 338.966 638.565 338.591 636.849C349.348 650.125 354.207 663.78 357.003 680.393C354.509 675.797 354.533 671.543 352.828 668.714L352.146 670.578C354.869 681.709 353.962 698.903 354.751 710.997C355.662 724.959 357.075 737.857 358.622 751.747L349.026 754.471Z"/><path fill="#221A2C" d="M338.591 636.849C349.348 650.125 354.207 663.78 357.003 680.393C354.509 675.797 354.533 671.543 352.828 668.714L352.146 670.578C349.606 658.768 345.474 650.817 338.865 640.728C339.478 639.383 338.966 638.565 338.591 636.849Z"/><path fill="#EB374C" d="M35.83 658.736C39.9393 649.898 44.3773 636.909 55.97 637.66C60.5457 640.205 57.7102 649.72 57.5016 654.58C55.9969 689.629 41.7372 719.908 35.5424 754.278L25.6437 750.868C27.7375 735.756 29.1289 723.865 29.5544 708.592C29.7953 699.946 29.5242 685.324 30.7402 677.393L28.8451 676.635C29.7614 668.365 31.467 663.034 34.5688 655.354C34.9462 656.489 35.3981 657.618 35.83 658.736Z"/><path fill="#221A2C" d="M34.5688 655.354C34.9462 656.489 35.3981 657.618 35.83 658.736C34.1335 665.539 32.2168 669.288 30.7402 677.393L28.8451 676.635C29.7614 668.365 31.467 663.034 34.5688 655.354Z"/><path fill="#9C9CA5" d="M191.053 787.218C191.052 787.237 191.197 778.181 192.413 781.981C192.815 783.236 192.784 789.21 192.771 790.669L191.053 787.218Z"/><path fill="#D0394A" d="M136.954 740.408C136.783 739.253 135.842 733.092 136.255 732.519C136.944 732.671 137.834 735.351 138.175 736.116L136.954 740.408Z"/><path fill="#EB374C" d="M123.81 512.698C138.102 501.18 155.91 497.318 174.059 498.458C187.519 499.304 188.357 508.726 189.868 519.957C191.377 531.182 193.252 571.187 181.844 577.613C157.991 591.05 121.905 575.036 105.777 555.668C105.706 555.555 105.635 555.442 105.564 555.328L102.652 555.29C101.887 554.332 101.145 553.357 100.428 552.364L100.898 550.591C98.1928 542.303 108.236 530.342 112.985 524.177L111.722 523.506C113.101 521.751 117.931 516.147 119.662 514.939C121.785 514.86 121.844 513.789 123.81 512.698Z"/><path fill="#691523" d="M119.662 514.939C121.785 514.86 121.844 513.789 123.81 512.698C122.937 514.032 114.497 522.749 112.985 524.177L111.722 523.506C113.101 521.751 117.931 516.147 119.662 514.939Z"/><path fill="#3F0F20" d="M100.898 550.591C102.84 552.362 103.823 553.362 105.564 555.328L102.652 555.29C101.887 554.332 101.145 553.357 100.428 552.364L100.898 550.591Z"/><path fill="#EB374C" d="M284.895 546.121C274.2 570.74 227.505 592.664 202.673 577.415C190.71 566.794 193.363 536.68 194.093 522.989C194.761 510.478 197.118 500.425 209.901 498.863C227.652 496.693 244.263 500.904 258.764 511.256L259.117 511.448C260.901 512.44 260.259 512.513 262.241 512.647C264.305 513.953 267.23 517.421 268.745 519.4L268.208 520.701C269.742 522.26 270.71 523.516 272.117 525.068C277.6 531.266 281.928 538.396 284.895 546.121Z"/><path fill="#8E2231" d="M258.764 511.256L259.117 511.448C260.901 512.44 260.259 512.513 262.241 512.647C264.305 513.953 267.23 517.421 268.745 519.4L268.208 520.701C267.316 520.09 259.429 512.26 258.764 511.256Z"/><path fill="#EB374C" d="M129.406 727.97C132.999 731.599 143.65 818.01 144.799 829.723C145.71 839.178 146.264 848.664 146.459 858.16C146.576 867.275 145.322 906.52 137.43 910.619C135.283 909.644 133.878 907.044 132.476 904.993C103.787 860.562 102.676 816.895 115.895 766.713C119.406 753.383 122.584 740.16 129.406 727.97Z"/><path fill="#EB374C" d="M254.498 727.273C259.06 731.998 269.571 771.667 271.562 780.668C281.418 825.226 277.448 864.272 252.758 902.972L246.081 912.334C226.687 869.643 246.834 774.279 254.498 727.273Z"/><path fill="#EB374C" d="M136.765 958.223C146.668 966.116 152.095 1045.31 153.115 1058.96C154.865 1082.38 153.144 1093.05 165.846 1114.59C160.324 1115.97 154.117 1118.99 148.832 1121.36C144.618 1098.54 140.14 1083.39 132.966 1061.1C127.787 1045.01 119.657 1033.47 119.378 1016.92C119.1 1000.49 125.452 970.138 136.765 958.223Z"/><path fill="#EB374C" d="M247.4 957.337C252.687 961.689 256.689 974.054 258.936 980.496C264.6 996.734 267.286 1016.15 261.86 1032.83C259.312 1040.52 255.151 1048.21 252.768 1055.9C246.365 1076.56 238.164 1098.56 235.143 1120.05C231.208 1117.49 222.696 1115.37 217.862 1114.03C238.641 1083.13 227.163 1000.9 247.4 957.337Z"/><path fill="#EB374C" d="M102.652 555.29C110.366 575.092 105.04 601.412 94.3494 619.268C87.088 631.396 65.5959 656.835 59.5173 628.09C53.6654 600.418 70.2246 558.865 100.428 552.364C101.145 553.357 101.887 554.332 102.652 555.29Z"/><path fill="#EB374C" d="M283.709 553.082C314.587 553.84 337.576 614.457 318.633 640.093C305.989 649.249 285.151 613.84 282.616 603.403C278.436 586.191 275.282 569.633 283.709 553.082Z"/><path fill="#EB374C" d="M246.317 733.844C247.006 733.867 246.988 733.929 247.507 734.479L247.815 734.813C244.702 763.492 240.023 792.169 236.578 820.742C232.751 852.487 234.093 884.333 223.93 915.239L224.652 917.437C223.706 918.704 222.931 919.713 221.835 920.866L220.29 919.582C219.117 919.494 217.84 919.377 216.695 919.114C211.78 917.965 207.558 914.838 205.025 910.471C199.028 900.108 204.56 880.843 207.391 869.897C212.347 850.735 219.551 832.042 225.264 813.093C233.15 786.936 239.597 760.324 246.317 733.844Z"/><path fill="#3F0F20" d="M223.93 915.239L224.652 917.437C223.706 918.704 222.931 919.713 221.835 920.866L220.29 919.582C221.411 918.126 222.713 916.806 223.93 915.239Z"/><path fill="#EB374C" d="M111.722 523.506C105.919 530.902 75.6029 563.382 68.207 561.328C60.0006 550.808 76.0718 515.241 86.8883 507.516C102.234 496.556 114.4 496.574 131.935 498.25C129.225 504.949 124.445 509.573 119.662 514.939C117.931 516.147 113.101 521.751 111.722 523.506Z"/><path fill="#EB374C" d="M262.241 512.647C259.493 509.501 253.733 503.563 253.207 499.644C255.857 496.988 258.746 497.672 262.255 497.434C295.402 495.192 316.513 521.035 317.2 552.33C317.394 561.171 315.183 564.696 307.074 558.099C294.716 548.121 283.876 535.823 273.156 524.149L272.117 525.068C270.71 523.516 269.742 522.26 268.208 520.701L268.745 519.4C267.23 517.421 264.305 513.953 262.241 512.647Z"/><path fill="#3F0F20" d="M268.745 519.4L273.156 524.149L272.117 525.068C270.71 523.516 269.742 522.26 268.208 520.701L268.745 519.4Z"/><path fill="#EB374C" d="M146.526 909.663C157.346 910.419 170.486 928.793 169.296 938.505C168.196 947.485 160.316 971.221 154.142 977.184C152.562 976.986 151.613 976.706 150.072 976.289C144.399 971.478 141.461 960.1 137.601 953.39C135.153 949.135 132.552 944.44 130.324 940.081C132.624 927.483 135.777 917.689 146.526 909.663Z"/><path fill="#EB374C" d="M192.766 733.396C192.75 724.852 193.202 699.107 197.494 692.34C201.635 685.809 218.63 685.008 227.002 683.587C230.349 692.867 224.403 711.819 221.56 720.989C217.968 728.374 203.32 754.078 195.277 755.35C193.768 754.438 193.734 754.39 192.768 752.885C193.649 749.332 193.367 737.251 192.766 733.396Z"/><path fill="#EB374C" d="M224.652 917.437C229.444 912.249 235.52 906.072 242.533 913.208C249.436 920.233 251.882 931.099 252.528 940.68C250.452 945.186 247.232 950.707 244.881 955.179C242.389 959.922 237.96 974.395 233.721 976.408C231.304 976.921 229.853 976.481 227.592 975.493C227.129 974.325 224.867 970.254 224.085 969.05C217.382 949.952 209.023 939.281 221.835 920.866C222.931 919.713 223.706 918.704 224.652 917.437Z"/><path fill="#EB374C" d="M191.905 753.344C189.987 755.418 190.838 755.096 188.686 755.192C174.175 747.518 148.35 694.905 160.061 684.593C162.819 684.341 183.503 687.533 185.238 689.044C190.678 693.779 191.124 719.861 191.375 726.27C192.981 731.253 192.334 740.752 192.375 746.491C192.398 741.744 192.222 738.131 192.766 733.396C193.367 737.251 193.649 749.332 192.768 752.885C192.462 752.743 192.592 752.769 192.37 752.766C192.122 752.936 192.277 752.792 191.905 753.344Z"/><path fill="#691523" d="M191.375 726.27C192.981 731.253 192.334 740.752 192.375 746.491C192.398 741.744 192.222 738.131 192.766 733.396C193.367 737.251 193.649 749.332 192.768 752.885C192.462 752.743 192.592 752.769 192.37 752.766C192.122 752.936 192.277 752.792 191.905 753.344C190.964 750.088 191.181 730.821 191.375 726.27Z"/><path fill="#EB374C" d="M224.085 969.05C224.867 970.254 227.129 974.325 227.592 975.493L226.129 977.883C236.881 1006.38 229.744 1036.75 225.751 1066.39C224.42 1060.75 223.575 1054.58 221.646 1049.02C216.721 1034.82 211.439 1025.51 212.024 1010.01C212.279 1003.26 217.608 973.955 221.312 970.557C222.795 970.182 223.202 970.326 224.085 969.05Z"/><path fill="#221A2C" d="M224.085 969.05C224.867 970.254 227.129 974.325 227.592 975.493L226.129 977.883C224.241 974.098 224.124 973.617 221.312 970.557C222.795 970.182 223.202 970.326 224.085 969.05Z"/><path fill="#EB374C" d="M157.314 1057.21C154.413 1032.52 146.41 993.376 161.947 971.603C162.555 970.751 162.387 971.079 163.782 970.873C167.99 975.107 171.763 1004.49 172.068 1011.97C172.795 1029.77 161.075 1044.7 159.398 1059.42C159.314 1060.26 159.147 1063.03 158.603 1063.61C157.69 1062.52 157.425 1058.67 157.314 1057.21Z"/><path fill="#D0394A" d="M157.314 1057.21C157.798 1058.44 157.922 1059.35 159.398 1059.42C159.314 1060.26 159.147 1063.03 158.603 1063.61C157.69 1062.52 157.425 1058.67 157.314 1057.21Z"/><path fill="#EB374C" d="M187.676 582.171C193.375 583.374 190.989 601.261 189.74 605.112C185.492 618.202 167.878 619.093 157.069 615.127C155.109 613.203 155.011 612.227 153.624 610.244C138.608 588.781 172.284 585.645 187.676 582.171Z"/><path fill="#EB374C" d="M194.95 582.589C207.378 584.962 221.352 587.326 232.702 592.979C238.763 595.998 232.383 607.803 229.758 611.658C223.317 617.245 215.3 618.178 207.12 616.344C191.446 612.829 191.52 595.089 194.95 582.589Z"/><path fill="#EB374C" d="M196.713 617.993C198.891 617.944 201.069 617.942 203.247 617.986C205.479 618.041 208.645 618.377 210.446 618.497C227.895 619.664 232.871 618.437 231.031 638.265C230.581 643.113 228.712 644.31 225.264 647.284C211.097 653.24 191.123 652.99 193.943 632.957C194.88 626.302 192.655 625.002 196.713 617.993Z"/><path fill="#EB374C" d="M153.802 634.555C153.838 623.186 152.603 620.007 164.584 619.177C189.32 617.464 191.982 611.787 189.647 640.874C189.115 647.497 184.364 649.265 178.663 650.565C176.247 650.472 173.841 650.621 171.374 650.535C167.939 650.084 163.305 649.284 160.221 647.703C153.39 644.202 155.155 638.255 153.936 634.916L153.802 634.555Z"/><path fill="#EB374C" d="M225.174 680.126C215.885 683.525 216.192 684.012 204.746 684.237C190.466 684.518 192.783 658.798 197.748 653.55C199.049 652.175 221.784 651.33 224.998 651.247C226.658 651.204 228.697 653.523 229.687 655.04C229.763 658.126 229.849 660.632 230.142 663.716C230.085 671.259 230.091 674.541 225.174 680.126Z"/><path fill="#EB374C" d="M171.374 650.535C173.841 650.621 176.247 650.472 178.663 650.565C178.847 651.333 178.956 651.654 179.207 652.384C181.744 652.473 185.376 652.124 187.149 654.342C191.228 659.444 189.714 670.833 189.63 676.892C189.52 684.846 175.94 684.887 170.662 683.754C165.101 682.865 161.765 681.165 157.323 678.294C156.31 674.068 155.592 669.777 155.175 665.452C155.962 650.319 156.166 650.801 169.64 652.128C170.678 651.65 171.23 651.737 171.374 650.535Z"/><path fill="#691523" d="M171.374 650.535C173.841 650.621 176.247 650.472 178.663 650.565C178.847 651.333 178.956 651.654 179.207 652.384C176.785 652.553 171.962 652.553 169.64 652.128C170.678 651.65 171.23 651.737 171.374 650.535Z"/><path fill="#EB374C" d="M231.749 664.303C235.355 666.921 242.736 657.678 244.174 654.544C244.444 654.851 246.164 656.842 246.356 656.967C248.585 660.116 253.027 669.82 254.382 673.638C251.674 680.704 229.857 714.175 224.661 719.309C223.55 720.001 222.806 720.528 221.56 720.989C224.403 711.819 230.349 692.867 227.002 683.587C225.189 681.898 225.715 682.772 225.174 680.126C230.091 674.541 230.085 671.259 230.142 663.716L231.749 664.303Z"/><defs><linearGradient id="gradient_0" gradientUnits="userSpaceOnUse" x1="235.56984" y1="687.25415" x2="224.30313" y2="682.73889"><stop offset="0" stop-color="#1D1830"/><stop offset="1" stop-color="#09253A"/></linearGradient></defs><path fill="url(#gradient_0)" d="M231.749 664.303C235.355 666.921 242.736 657.678 244.174 654.544C244.444 654.851 246.164 656.842 246.356 656.967C237.543 666.687 233.829 688.525 229.839 701.158C228.787 704.489 225.224 716.223 224.661 719.309C223.55 720.001 222.806 720.528 221.56 720.989C224.403 711.819 230.349 692.867 227.002 683.587C225.189 681.898 225.715 682.772 225.174 680.126C230.091 674.541 230.085 671.259 230.142 663.716L231.749 664.303Z"/><path fill="#EB374C" d="M45.1636 731.406C47.0816 723.403 52.9306 692.972 55.3176 688.457C60.8057 678.078 73.2141 659.111 79.7479 648.243C79.0181 658.039 78.5916 670.589 76.0737 679.968C73.653 688.986 65.3801 697.779 60.5304 705.8C55.354 714.363 50.1858 724.361 46.4438 733.713L45.1636 731.406Z"/><path fill="#EB374C" d="M304.433 648.015C310.373 656.449 314.896 666.721 320.782 674.821C332.801 691.363 334.482 710.64 338.79 730.633L337.359 732.481C335.304 726.505 325.674 706.489 322.271 702.295C305.675 681.837 305.659 674.1 304.433 648.015Z"/><path fill="#EB374C" d="M138.331 657.987C144.594 661.315 149.815 679.545 151.182 686.548C152.798 694.82 159.076 710.454 159.421 718.055C158.293 717.408 156.771 714.914 155.939 713.721C146.93 701.447 138.455 687.212 130.399 674.178C133.099 668.808 135.743 663.411 138.331 657.987Z"/><path fill="#EB374C" d="M152.192 630.674C152.881 632.62 152.676 632.756 153.802 634.555L153.936 634.916C155.155 638.255 153.39 644.202 160.221 647.703C163.305 649.284 167.939 650.084 171.374 650.535C171.23 651.737 170.678 651.65 169.64 652.128C156.166 650.801 155.962 650.319 155.175 665.452L153.345 664.446C147.013 662.768 145.788 660.776 141.957 655.853C141.04 650.353 139.847 636.103 142.093 631.251C143.143 631.015 143.968 630.864 144.989 630.497L145.312 630.846C148.51 634.342 150.893 636.937 152.192 630.674Z"/><defs><linearGradient id="gradient_1" gradientUnits="userSpaceOnUse" x1="171.06796" y1="650.64203" x2="140.57266" y2="644.85266"><stop offset="0" stop-color="#251328"/><stop offset="1" stop-color="#14233C"/></linearGradient></defs><path fill="url(#gradient_1)" d="M152.192 630.674C152.881 632.62 152.676 632.756 153.802 634.555L153.936 634.916C155.155 638.255 153.39 644.202 160.221 647.703C163.305 649.284 167.939 650.084 171.374 650.535C171.23 651.737 170.678 651.65 169.64 652.128C156.166 650.801 155.962 650.319 155.175 665.452L153.345 664.446C154.166 655.487 148.932 637.007 142.093 631.251C143.143 631.015 143.968 630.864 144.989 630.497L145.312 630.846C148.51 634.342 150.893 636.937 152.192 630.674Z"/><path fill="#EB374C" d="M231.293 655.495C232.637 650.009 238.193 636.778 241.419 632.421C246.539 625.507 244.26 653.385 244.174 654.544C242.736 657.678 235.355 666.921 231.749 664.303L230.142 663.716C229.849 660.632 229.763 658.126 229.687 655.04C230.247 655.209 230.724 655.348 231.293 655.495Z"/><path fill="#691523" d="M229.687 655.04C230.247 655.209 230.724 655.348 231.293 655.495C231.604 657.863 231.503 661.449 231.749 664.303L230.142 663.716C229.849 660.632 229.763 658.126 229.687 655.04Z"/><path fill="#EB374C" d="M142.397 609.771C145.249 612.919 148.347 616.617 151.23 619.905C151.49 623.982 151.448 626.592 152.192 630.674C150.893 636.937 148.51 634.342 145.312 630.846L144.989 630.497C142.838 622.784 142.61 617.576 142.397 609.771Z"/><path fill="#EB374C" d="M241.032 611.034C243.507 613.637 241.322 622.444 240.717 625.874C239.887 630.583 238.277 632.344 234.453 634.718C233.767 634.056 233.055 633.278 233.182 632.267C234.692 620.317 233.167 620.151 241.032 611.034Z"/><path fill="#8E2231" d="M246.317 733.844L246.417 733.366C246.698 731.984 246.533 729.911 247.796 728.976L247.861 728.975C248.683 730.234 248.169 733.402 247.815 734.813L247.507 734.479C246.988 733.929 247.006 733.867 246.317 733.844Z"/><path fill="#D0394A" d="M338.79 730.633C340.095 734.808 340.558 737.591 337.359 732.481L338.79 730.633Z"/><path fill="#D0394A" d="M45.1636 731.406L46.4438 733.713C46.1114 734.249 45.289 736.324 44.6446 735.904C44.4153 734.999 44.9937 732.39 45.1636 731.406Z"/><path fill="#122135" d="M545.465 466.139C546.222 457.195 546.898 443.741 540.552 435.947C535.925 430.264 521.304 411.388 534.236 405.141C535.529 404.516 535.174 401.876 535.136 400.534C534.783 387.764 534.927 374.994 542.821 364.182C567.46 333.137 617.157 348.596 618.077 389.293C618.202 394.821 616.87 400.92 617.658 405.904C619.868 406.007 620.499 405.939 622.448 407.072C623.36 408.609 623.35 409.58 623.372 411.294C623.535 424.161 619.925 426.227 612.407 433.985C606.669 439.906 606.776 457.839 607.437 465.782C615.015 472.698 639.244 487.528 649.495 491.807C654.132 493.461 660.373 493.135 664.934 494.469C693.978 502.965 712.512 535.083 705.911 564.162C721.649 588.505 713.34 602.789 721.535 627.049C722.156 628.886 726.461 634.504 727.869 636.361C726.116 636.778 726.436 636.973 725.68 638.655C725.25 643.924 725.719 649.438 726.02 654.73C725.835 669.318 727.016 683.892 729.549 698.26L727.86 701.332C730.296 716.922 732.333 726.971 736.376 742.172C733.73 742.867 729.369 744.183 726.783 744.292L725.531 744.607C714.839 720.254 694.813 693.893 689.798 670.563C688.808 666.023 687.641 653.43 687.806 648.773C683.892 631.052 673.005 623.398 664.055 607.277C657.715 619.027 648.838 629.373 643.481 640.39C631.953 664.095 653.578 704.4 649.015 721.865C650.569 730.17 653.122 735.051 654.178 744.959C655.575 748.096 658.429 772.768 659.358 778.39C665.548 815.867 665.628 850.531 656.606 887.672C652.854 907.015 643.832 930.836 644.13 950.527C644.531 977.014 658.419 997.913 654.076 1026.26C649.038 1059.13 632.816 1087.63 626.243 1120C624.63 1127.94 628.629 1133.93 629.886 1141.61C630.177 1143.45 629.535 1149.95 629.329 1152.14C630.617 1154.99 633.564 1160.77 635.695 1163.11C640.323 1168.17 655.523 1174.31 652.286 1182.81C645.154 1188.8 635.058 1183.52 627.417 1184.16C622.295 1185.05 617.518 1186.39 612.354 1187.26C605.346 1188.44 595.072 1185.62 594.12 1177.33C593.311 1170.28 597.129 1161.74 596.777 1154.43C596.466 1147.98 592.496 1141.57 593.585 1134.98C594.292 1129.11 599.7 1120.25 600.46 1115.37C604.963 1086.49 589.306 1055.43 589.237 1026.33C589.185 1004.45 601.516 985.997 599.999 965.077C599.271 955.045 590.463 941.991 588.513 931.215C586.24 918.653 584.916 906.438 583.401 893.845C581.028 874.659 578.822 855.452 576.783 836.227C574.827 843.058 573.082 859.077 571.945 866.738C568.858 887.55 565.861 908.21 562.345 928.946C560.039 942.542 550.893 958.482 551.438 970.808C552.444 993.535 562.883 1007.21 560.795 1031.54C558.613 1056.96 550.148 1079.43 549.7 1104.9C549.498 1116.38 553.899 1123.76 556.213 1134.3C557.763 1141.37 554.156 1151.79 554.474 1159.71C554.434 1165.83 558.067 1173.63 556.238 1179.63C551.83 1193.6 532.977 1184.61 523.048 1184.33C516.621 1184.15 502.125 1188.52 498.188 1181.61C497.276 1173.22 512.066 1167.11 516.87 1160.26C519.765 1156.13 519.783 1155.99 521.729 1151.24C521.474 1149.36 520.717 1143.83 520.972 1142.32C522.544 1133 526.641 1127.05 524.453 1117.18C516.808 1082.72 498.031 1052.79 495.286 1017.2C493.123 989.163 509.626 967.305 507.064 942.628C504.188 916.267 494.943 890.655 491.833 864.276C486.292 817.287 492.825 769.988 502.804 724.058C503.615 720.326 501.404 714.239 502.38 710.03C504.993 698.761 508.245 687.605 510.567 676.272C516.689 643.533 505.398 632.731 488.21 607.621C478.916 625.485 470.092 629.42 465.525 648.802C465.8 659.126 463.507 668.437 461.47 678.308C453.218 701.08 437.631 724.096 426.624 746.884C425.256 744.621 425.988 745.295 422.924 744.539L424.455 744.261C422.578 743.549 418.613 743.014 416.46 742.656C421.064 722.704 427.891 692.574 428.241 672.209C427.862 668.505 427.419 661.847 428.476 658.389L429.359 655.287C428.112 652.619 428.293 645.777 428.124 642.391L427.991 639.72C427.845 639.288 426.869 637.534 426.595 637.022C439.727 620.509 434.676 612.055 437.548 592.521C439.243 580.995 442.179 574.086 447.862 564.152C445.889 558.8 445.529 553.339 446.044 547.615C448.16 524.078 462.787 503.162 485.33 495.087C490.032 493.403 502.431 492.911 505.197 491.563C517.159 485.738 535.608 474.575 545.465 466.139Z"/><path fill="#EB374C" d="M650.318 745.031C649.859 747.983 649.293 753.49 647.02 755.482L645.732 754.715C642.92 765.313 640.001 778.91 629.363 784.559C616.027 791.64 587.934 783.179 580.917 769.581C575.861 759.783 581.336 740.826 584.335 730.873C592.838 702.655 617.511 689.639 640.634 713.155C643.347 715.918 645.29 720.276 647.002 724.068L649.015 721.865C650.569 730.17 653.122 735.051 654.178 744.959C651.202 741.927 652.903 743.236 651.979 740.118C651.5 740.423 651.703 740.335 651.436 741.102L651.829 741.23C650.953 742.102 650.925 743.379 650.318 745.031Z"/><path fill="#221A2C" d="M647.002 724.068L649.015 721.865C650.569 730.17 653.122 735.051 654.178 744.959C651.202 741.927 652.903 743.236 651.979 740.118C651.5 740.423 651.703 740.335 651.436 741.102L651.829 741.23C650.953 742.102 650.925 743.379 650.318 745.031C650.109 736.211 650.558 732.586 647.002 724.068Z"/><path fill="#EB374C" d="M696.707 645.346C701.297 638.612 697.534 616.102 699.624 613.277L700.668 614.557C699.883 617.354 699.805 619.71 701.811 622.038C707.796 627.916 719.921 648.245 724.602 656.076L726.02 654.73C725.835 669.318 727.016 683.892 729.549 698.26L727.86 701.332C730.296 716.922 732.333 726.971 736.376 742.172C733.73 742.867 729.369 744.183 726.783 744.292L725.531 744.607C714.839 720.254 694.813 693.893 689.798 670.563C688.808 666.023 687.641 653.43 687.806 648.773C687.915 647.915 688.066 643.881 688.214 643.509C688.951 641.661 689.555 642.313 689.925 639.58C692.615 641.72 693.417 643.007 696.707 645.346Z"/><path fill="#EB374C" d="M689.925 639.58C692.615 641.72 693.417 643.007 696.707 645.346C693.857 647.193 695.708 649.5 696.278 652.533C699.629 658.61 709.374 671.713 710.793 676.981C714.449 690.557 718.637 707.564 721.122 721.307L721.55 722.265L723.913 723.05C724.414 726.229 724.578 729.057 725.03 732.21L726.783 744.292L725.531 744.607C714.839 720.254 694.813 693.893 689.798 670.563C688.808 666.023 687.641 653.43 687.806 648.773C687.915 647.915 688.066 643.881 688.214 643.509C688.951 641.661 689.555 642.313 689.925 639.58Z"/><path fill="#122135" d="M691.081 670.219C692.984 678.281 704.158 694.644 709.026 702.932C712.484 708.879 715.669 714.982 718.569 721.22L721.122 721.307L721.55 722.265L723.913 723.05C724.414 726.229 724.578 729.057 725.03 732.21L726.783 744.292L725.531 744.607C714.839 720.254 694.813 693.893 689.798 670.563L691.081 670.219Z"/><path fill="#221A2C" d="M721.55 722.265L723.913 723.05C724.414 726.229 724.578 729.057 725.03 732.21C723.427 730.803 723.27 730.804 722.463 728.849C722.654 726.495 722.064 724.569 721.55 722.265Z"/><path fill="#D0394A" d="M721.122 721.307L721.55 722.265C722.064 724.569 722.654 726.495 722.463 728.849C720.738 726.139 719.767 724.235 718.569 721.22L721.122 721.307Z"/><path fill="#221A2C" d="M689.925 639.58C692.615 641.72 693.417 643.007 696.707 645.346C693.857 647.193 695.708 649.5 696.278 652.533C694.056 649.323 691.854 645.533 689.657 642.166C689.944 647.62 690.227 652.954 690.143 658.429C690.643 662.16 690.741 664.559 690.716 668.335L691.081 670.219L689.798 670.563C688.808 666.023 687.641 653.43 687.806 648.773C687.915 647.915 688.066 643.881 688.214 643.509C688.951 641.661 689.555 642.313 689.925 639.58Z"/><path fill="#691523" d="M690.143 658.429C690.643 662.16 690.741 664.559 690.716 668.335C689.215 663.671 689.662 663.451 690.143 658.429Z"/><defs><linearGradient id="gradient_2" gradientUnits="userSpaceOnUse" x1="714.30969" y1="671.4502" x2="699.55267" y2="673.90161"><stop offset="0" stop-color="#320B28"/><stop offset="1" stop-color="#06283A"/></linearGradient></defs><path fill="url(#gradient_2)" d="M696.707 645.346C701.297 638.612 697.534 616.102 699.624 613.277L700.668 614.557C699.883 617.354 699.805 619.71 701.811 622.038C701.773 628.381 704.268 655.543 706.364 660.67C714.729 681.133 719.682 701.149 723.913 723.05L721.55 722.265L721.122 721.307C718.637 707.564 714.449 690.557 710.793 676.981C709.374 671.713 699.629 658.61 696.278 652.533C695.708 649.5 693.857 647.193 696.707 645.346Z"/><path fill="#3F0F20" d="M726.02 654.73C725.835 669.318 727.016 683.892 729.549 698.26L727.86 701.332C725.32 684.02 724.765 673.238 724.602 656.076L726.02 654.73Z"/><path fill="#EB374C" d="M677.469 552.171C679.241 555.356 681.243 559.713 682.892 563.067C683.521 561.801 683.736 561.343 683.983 559.901L684.313 557.914L683.985 555.688L684.966 555.166C696.691 560.663 705.564 571.581 709.912 583.63C716.048 600.631 712.798 610.038 711.407 626.738C706.865 622.537 704.519 619.457 700.668 614.557L699.624 613.277C697.534 616.102 701.297 638.612 696.707 645.346C693.417 643.007 692.615 641.72 689.925 639.58C685.305 634.932 683.025 631.134 679.704 625.702C663.828 599.734 670.38 579.524 677.469 552.171Z"/><path fill="#3F0F20" d="M684.313 557.914C684.438 558.929 685.371 565.563 684.359 565.924C683.639 565.306 683.216 563.972 682.892 563.067C683.521 561.801 683.736 561.343 683.983 559.901L684.313 557.914Z"/><path fill="#EB374C" d="M452.234 620.947C450.909 633.744 449.707 647.852 447.414 660.556C446.582 665.161 441.578 670.816 440.378 675.196C436.077 690.903 431.968 707.776 428.767 723.685L429.862 723.884C429.794 725.964 429.836 727.015 430.013 729.063C429.196 729.835 428.351 730.54 427.512 731.287C427.195 734.464 426.94 742.348 424.455 744.261C422.578 743.549 418.613 743.014 416.46 742.656C421.064 722.704 427.891 692.574 428.241 672.209C427.862 668.505 427.419 661.847 428.476 658.389L429.359 655.287C434.855 644.142 443.683 630.092 452.234 620.947Z"/><path fill="#8E2231" d="M428.241 672.209C427.862 668.505 427.419 661.847 428.476 658.389C429.353 662.962 429.272 667.668 428.241 672.209Z"/><path fill="#3F0F20" d="M428.767 723.685L429.862 723.884C429.794 725.964 429.836 727.015 430.013 729.063C429.196 729.835 428.351 730.54 427.512 731.287C427.815 729.211 428.303 725.579 428.767 723.685Z"/><path fill="#EB374C" d="M462.902 645.037C464.738 645.525 464.262 646.863 465.525 648.802C465.8 659.126 463.507 668.437 461.47 678.308C453.218 701.08 437.631 724.096 426.624 746.884C425.256 744.621 425.988 745.295 422.924 744.539L424.455 744.261C426.94 742.348 427.195 734.464 427.512 731.287C428.351 730.54 429.196 729.835 430.013 729.063C429.836 727.015 429.794 725.964 429.862 723.884C434.798 709.469 437.578 690.642 442.415 676.624C444.411 670.842 458.603 650.901 462.902 645.037Z"/><path fill="#122135" d="M460.24 675.251L461.47 678.308C453.218 701.08 437.631 724.096 426.624 746.884C425.256 744.621 425.988 745.295 422.924 744.539L424.455 744.261C426.94 742.348 427.195 734.464 427.512 731.287C428.351 730.54 429.196 729.835 430.013 729.063C433.955 721.504 437.404 713.655 441.646 706.294C447.685 695.817 454.232 685.774 460.24 675.251Z"/><path fill="#221A2C" d="M462.902 645.037C464.738 645.525 464.262 646.863 465.525 648.802C465.8 659.126 463.507 668.437 461.47 678.308L460.24 675.251C462.082 668.014 462.6 653.241 462.902 645.037Z"/><path fill="#EB374C" d="M496.586 538.259L499.355 539.508C509.08 538.689 517.224 542.485 524.263 548.904C554.171 576.18 567.481 598.067 569.941 638.583C571.555 665.151 571.768 689.454 572.126 715.698C550.477 699.998 548.919 693.024 534.483 671.106C512.304 637.433 492.272 603.54 484.514 563.317C483.185 556.471 482.872 549.56 488.151 544.423L487.174 543.079C488.776 542.094 494.932 538.827 496.586 538.259Z"/><path fill="#691523" d="M496.586 538.259L499.355 539.508C493.297 540.927 493.482 540.944 488.151 544.423L487.174 543.079C488.776 542.094 494.932 538.827 496.586 538.259Z"/><path fill="#EB374C" d="M654.715 537.268C655.859 537.669 656.899 538.118 658.012 538.588C659.115 538.961 665.331 542.619 666.304 543.349L665.175 544.055C670.202 548.549 669.996 557.625 668.746 563.714C660.616 603.322 641.654 636.676 619.394 669.787C604.835 691.443 604.243 699.195 581.725 715.438C581.906 681.867 581.249 646.22 587.233 613.198C592.111 586.276 621.94 543.821 650.092 539.189C651.814 538.54 653.063 538.049 654.715 537.268Z"/><path fill="#8E2231" d="M658.012 538.588C659.115 538.961 665.331 542.619 666.304 543.349L665.175 544.055C658.848 540.546 661.162 541.177 653.783 539.396L658.012 538.588Z"/><path fill="#221A2C" d="M654.715 537.268C655.859 537.669 656.899 538.118 658.012 538.588L653.783 539.396C652.51 539.303 651.365 539.23 650.092 539.189C651.814 538.54 653.063 538.049 654.715 537.268Z"/><path fill="#EB374C" d="M502.72 771.246C504.018 787.431 506.387 800.09 526.779 798.033C543.493 796.346 558.487 788.16 574.297 784.617C568.873 818.381 561.599 852.939 555.594 886.745C553.078 900.908 548.617 932.958 545.033 944.587C543.966 933.429 541.579 922.338 539.907 911.268C535.765 883.85 529.691 856.083 525.708 828.738L524.344 828.642C525.613 858.63 524.843 917.626 513.024 944.717C512.963 934.732 512.744 920.227 510.71 910.732C507.504 895.76 503.23 881.787 500.221 866.584C493.322 831.721 496.429 805.255 502.72 771.246Z"/><path fill="#8E2231" d="M524.344 828.642C524.093 826.986 523.557 824.307 523.501 822.728L524.091 822.08C523.936 821.505 524.029 821.796 523.812 821.207L523.911 821.165L523.968 821.189C523.937 821.507 523.906 821.826 523.875 822.144L524.631 822.583C525.001 824.137 525.456 827.064 525.708 828.738L524.344 828.642Z"/><path fill="#EB374C" d="M580.141 784.239C601.464 792.176 650.687 814.615 650.655 777.708C650.653 776.329 651.336 773.39 651.564 771.902C656.958 806.61 656.813 842.48 648.713 876.721C642.435 903.265 638.052 912.053 637.512 940.536L635.856 941.205C626.51 911.604 626.808 866.982 628.792 835.737C628.312 833.617 628.299 833.169 627.288 831.185C620.577 864.199 612.479 896.91 606.563 930.085C605.729 934.765 604.998 939.497 604.558 944.232C602.213 935.403 600.109 918.427 598.651 908.734L586.735 827.24C584.945 814.734 583.035 795.869 580.141 784.239Z"/><path fill="#3F0F20" d="M628.453 823.882L629.571 825.525C629.107 829.002 629.336 831.949 628.792 835.737C628.312 833.617 628.299 833.169 627.288 831.185C627.619 828.677 628.169 826.456 628.453 823.882Z"/><path fill="#8E2231" d="M628.453 823.882C628.516 823.03 628.495 820.562 629.523 820.352C630.513 821.137 629.743 824.459 629.571 825.525L628.453 823.882Z"/><path fill="#EB374C" d="M536.615 701.5C541.085 701.397 546.31 701.999 550.596 704.575C568.925 715.592 578.695 752.614 570.419 771.382C566.874 779.422 549.795 784.956 541.032 786.97C524.859 788.942 514.271 781.731 509.671 766.101C508.472 760.539 508.235 758.111 505.369 753.398C499.052 742.273 504.21 723.679 511.834 714.287C518.84 705.656 526.072 702.667 536.615 701.5Z"/><path fill="#EB374C" d="M587.034 592.014C575.992 561.419 582.125 509.383 602.833 483.096C611.184 472.495 634.308 489.901 640.775 497.798C630.276 504.735 624.375 503.681 620.321 517.413C620.214 519.129 619.952 520.511 619.791 522.189C615.557 550.512 609.111 572.356 587.034 592.014Z"/><path fill="#EB374C" d="M539.671 480.144C550.091 479.436 553.988 485.095 558.13 494.193C571.447 523.444 577.393 562.06 566.468 592.912C562.334 589.086 560.298 586.655 556.711 582.275C539.553 561.061 537.285 540.407 532.352 514.833C530.491 505.184 520.417 502.159 512.403 497.83C519.672 489.515 529.115 483.39 539.671 480.144Z"/><path fill="#EB374C" d="M472.429 562.24L476.924 553.663C487.27 584.238 487.911 608.397 466.715 635.305C464.484 638.137 459.09 643.658 455.686 643.946C453.218 640.078 454.563 617.606 454.8 611.685C450.856 617.474 447.46 621.716 442.539 626.66C435.485 600.307 441.749 572.051 466.035 557.583C467.612 556.643 468.334 556.31 470.02 556.82L470.273 559.482L472.429 562.24Z"/><path fill="#221A2C" d="M470.273 559.482L472.429 562.24C472.007 563.136 470.951 566.12 469.987 566.34C469.084 565.412 470.074 560.766 470.273 559.482Z"/><path fill="#EB374C" d="M487.174 543.079C479.93 546.984 457.431 559.62 450.454 555.606C449.822 554.866 448.608 553.255 448.712 552.231C450.859 531.048 462.317 503.484 486.596 500.986C494.956 500.125 520.172 506.403 526.001 511.049C529.7 519.207 502.638 535.006 496.586 538.259C494.932 538.827 488.776 542.094 487.174 543.079Z"/><path fill="#EB374C" d="M654.715 537.268C647.882 532.983 628.904 520.809 626.09 513.217C626.488 511.639 626.951 510.937 628.712 510.165C671.287 491.485 701.621 506.434 703.638 554.142C703.673 554.963 702.323 555.866 701.701 556.398C693.807 558.457 674.261 547.405 666.304 543.349C665.331 542.619 659.115 538.961 658.012 538.588C656.899 538.118 655.859 537.669 654.715 537.268Z"/><path fill="#EB374C" d="M622.272 1020.23C622.56 1010.62 624.901 965.848 628.655 958.842L629.988 958.242C634.531 960.975 646.736 995.903 648.387 1002.7C651.136 1014.02 655.436 1041.86 638.85 1044.94C633.209 1045.99 624.83 1047.73 621.452 1041.82C620.669 1039.25 620.921 1039.36 618.994 1037.54C619.143 1035.67 619.401 1034.83 619.97 1033.07L621.581 1033.16L621.83 1023.5C621.364 1021.83 620.999 1021.48 622.272 1020.23Z"/><path fill="#221A2C" d="M619.97 1033.07L621.581 1033.16C621.587 1036.06 621.439 1038.88 621.452 1041.82C620.669 1039.25 620.921 1039.36 618.994 1037.54C619.143 1035.67 619.401 1034.83 619.97 1033.07Z"/><path fill="#691523" d="M621.83 1023.5C621.364 1021.83 620.999 1021.48 622.272 1020.23C622.447 1021.85 622.677 1022.2 621.83 1023.5Z"/><path fill="#EB374C" d="M529.268 1034.71C530.573 1054.03 506.186 1048.2 500.269 1033.1C495.125 1019.97 512.661 961.073 521.441 958.549C525.343 962.572 527.564 1009.67 528.204 1018.92C528.163 1021.83 528.807 1031.87 529.268 1034.71Z"/><path fill="#EB374C" d="M535.921 958.394C547.413 977.654 561.207 1015.39 556.912 1037.32C553.958 1052.4 535.877 1051.55 531.743 1034.42L529.268 1034.71C528.807 1031.87 528.163 1021.83 528.204 1018.92C528.824 1018.88 528.631 1018.94 528.896 1018.81C528.943 1018.75 529.341 1013 530.075 1010.54C530.854 996.491 532.668 972.086 535.921 958.394Z"/><path fill="#3F0F20" d="M528.204 1018.92C528.824 1018.88 528.631 1018.94 528.896 1018.81C528.943 1018.75 529.341 1013 530.075 1010.54C530.221 1021.39 529.922 1023.65 531.743 1034.42L529.268 1034.71C528.807 1031.87 528.163 1021.83 528.204 1018.92Z"/><path fill="#EB374C" d="M618.994 1037.54C617.615 1040.65 615.425 1045.72 611.732 1046.87C571.665 1059.39 608.015 963.295 614.314 960.742C618.49 966.163 619.988 996.159 620.337 1004.12C621.076 1007.2 622.206 1024.04 620.467 1025.77L619.97 1033.07C619.401 1034.83 619.143 1035.67 618.994 1037.54Z"/><path fill="#691523" d="M620.337 1004.12C621.076 1007.2 622.206 1024.04 620.467 1025.77C620.286 1024.21 620.271 1005.94 620.337 1004.12Z"/><path fill="#EB374C" d="M524.009 1050.35C532.852 1050.95 534.561 1050.83 536.125 1060.22C539.622 1081.24 541.8 1102.42 544.073 1123.6C544.289 1125.7 545.089 1129.91 544.305 1131.45L542.983 1129.09C532.084 1104.16 525.662 1077.51 524.009 1050.35Z"/><path fill="#EB374C" d="M606.4 1125.61C607.629 1115.01 613.9 1058.69 617.9 1052.41C620.61 1050.51 624.139 1050.78 627.541 1050.72C624.125 1074.68 618.928 1109.46 607.321 1130.53C607.004 1131.21 607.051 1131.3 606.556 1131.71C606.478 1131.69 606.4 1131.68 606.322 1131.66C605.606 1130.53 606.196 1127.02 606.4 1125.61Z"/><path fill="#D0394A" d="M606.4 1125.61C606.666 1127.25 606.973 1128.89 607.321 1130.53C607.004 1131.21 607.051 1131.3 606.556 1131.71C606.478 1131.69 606.4 1131.68 606.322 1131.66C605.606 1130.53 606.196 1127.02 606.4 1125.61Z"/><path fill="#EB374C" d="M620.321 517.413L622.591 518.511C625.861 523.969 634.026 539.783 632.252 541.521C616.063 557.38 619.518 539.709 621.342 525.306L619.791 522.189C619.952 520.511 620.214 519.129 620.321 517.413Z"/><path fill="#221A2C" d="M620.321 517.413L622.591 518.511C621.715 521.56 621.936 522.592 621.342 525.306L619.791 522.189C619.952 520.511 620.214 519.129 620.321 517.413Z"/><path fill="#EB374C" d="M530.732 520.358C532.143 521.841 535.182 543.009 533.604 546.079C531.614 549.95 529.987 548.086 527.47 546.512L527.057 546.257C524.775 544.658 522.554 542.974 520.396 541.211C523.217 533.967 526.676 526.989 530.732 520.358Z"/><path fill="#D0394A" d="M637.512 940.536C637.435 941.177 637.389 941.801 637.198 942.411C636.706 942.445 636.238 941.622 635.856 941.205L637.512 940.536Z"/><defs><linearGradient id="gradient_3" gradientUnits="userSpaceOnUse" x1="452.44165" y1="739.72437" x2="383.82178" y2="759.43396"><stop offset="0" stop-color="#201A2A"/><stop offset="1" stop-color="#10253D"/></linearGradient></defs><path fill="url(#gradient_3)" d="M411.735 668.862C413.568 657.671 419.835 646.01 426.595 637.022C426.869 637.534 427.845 639.288 427.991 639.72L428.124 642.391C428.293 645.777 428.112 652.619 429.359 655.287L428.476 658.389C427.419 661.847 427.862 668.505 428.241 672.209C427.891 692.574 421.064 722.704 416.46 742.656C418.613 743.014 422.578 743.549 424.455 744.261L422.924 744.539C425.988 745.295 425.256 744.621 426.624 746.884C426.356 747.508 426.094 748.135 425.838 748.765C417.661 768.922 430.582 764.105 430.919 782.568C431.038 789.123 437.411 810.77 430.769 813.142C425.234 811.384 422.981 795.153 421.051 789.268C418.99 791.212 416.834 793.484 414.821 795.514C412.136 821.14 416.372 814.051 427.076 835.545C427.454 836.304 425.92 839.165 425.069 839.923C421.139 843.422 419.923 840.117 414.664 840.151C383.245 815.141 399.231 763.601 404.072 730.732C407.109 710.113 406.774 689.306 411.735 668.862Z"/><path fill="#EB374C" d="M411.735 668.862C413.568 657.671 419.835 646.01 426.595 637.022C426.869 637.534 427.845 639.288 427.991 639.72L428.124 642.391C427.023 649.957 427.847 660.69 427.393 668.843C425.948 692.276 420.74 715.324 411.971 737.102C411.362 739.061 411.226 739.41 410.109 741.126C409.459 738.744 410.253 735.263 410.647 732.713C414 713.848 414.098 693.817 413.025 674.773C411.955 673.65 411.979 670.773 411.735 668.862Z"/><path fill="#221A2C" d="M411.735 668.862C413.568 657.671 419.835 646.01 426.595 637.022C426.869 637.534 427.845 639.288 427.991 639.72C424.519 641.262 416.851 658.117 415.161 662.657C413.231 667.84 412.821 669.255 413.025 674.773C411.955 673.65 411.979 670.773 411.735 668.862Z"/><path fill="#122135" d="M727.869 636.361C734.969 646.277 739.576 655.798 742.154 667.703C742.639 668.916 742.623 669.354 742.891 670.599C746.881 690.642 746.671 713.652 748.78 734.201C752.053 766.098 766.572 808.739 742.575 835.806C737.766 841.23 729.068 845.555 724.996 837.11C724.994 831.157 738.132 820.518 738.984 813.614C739.659 808.15 740.462 792.411 732.602 791.739C727.231 795.389 729.918 812.135 721.926 813.844C720.26 813.03 719.59 812.915 718.693 811.401C718.797 809.649 723.357 774.436 723.337 774.471C731.575 759.83 733.033 761.149 725.531 744.607L726.783 744.292C729.369 744.183 733.73 742.867 736.376 742.172C732.333 726.971 730.296 716.922 727.86 701.332L729.549 698.26C727.016 683.892 725.835 669.318 726.02 654.73C725.719 649.438 725.25 643.924 725.68 638.655C726.436 636.973 726.116 636.778 727.869 636.361Z"/><path fill="#EB374C" d="M727.869 636.361C734.969 646.277 739.576 655.798 742.154 667.703C742.639 668.916 742.623 669.354 742.891 670.599C741.018 674.235 742.128 698.576 741.618 705.149C741.433 716.741 742.2 730.133 742.696 741.738C737.065 728.358 732.764 712.428 729.549 698.26C727.016 683.892 725.835 669.318 726.02 654.73C725.719 649.438 725.25 643.924 725.68 638.655C726.436 636.973 726.116 636.778 727.869 636.361Z"/><path fill="#221A2C" d="M727.869 636.361C734.969 646.277 739.576 655.798 742.154 667.703L741.069 668.352C738.894 660.973 730.74 644.038 725.68 638.655C726.436 636.973 726.116 636.778 727.869 636.361Z"/><path fill="#691523" d="M742.154 667.703C742.639 668.916 742.623 669.354 742.891 670.599C741.018 674.235 742.128 698.576 741.618 705.149C740.474 695.375 741.329 679.05 741.069 668.352L742.154 667.703Z"/></svg>